<?xml version="1.0" encoding="UTF-8"?>
<svg width="211px" height="53px" viewBox="0 0 211 53" version="1.1" xmlns="http://www.w3.org/2000/svg" xmlns:xlink="http://www.w3.org/1999/xlink">
    <!-- Generator: Sketch 55.1 (78136) - https://sketchapp.com -->
    <title>Group</title>
    <desc>Created with Sketch.</desc>
    <g id="Page-1" stroke="none" stroke-width="1" fill="none" fill-rule="evenodd">
        <g id="Artboard" transform="translate(-456.000000, -227.000000)" fill="#000000">
            <g id="Group" transform="translate(456.000000, 221.000000)">
                <g id="laptop-smiley-1" transform="translate(0.000000, 6.000000)" fill-rule="nonzero">
                    <path d="M9.83042931,32 C11.2921922,32 12.4771852,30.8044987 12.4771852,29.329773 L12.4771852,7.12149533 C12.4771852,6.13785333 13.2675755,5.34045394 14.2425713,5.34045394 L50.4104899,5.34045394 C50.8786994,5.34045394 51.3277323,5.52809883 51.6588064,5.86210888 C51.9898806,6.19611894 52.1758761,6.64913378 52.1758761,7.12149533 L52.1758761,29.329773 C52.1758761,30.8044987 53.360869,32 54.8226319,32 C56.2843948,32 57.4693878,30.8044987 57.4693878,29.329773 L57.4693878,7.12149533 C57.4635574,3.19084105 54.306594,0.00588202151 50.4104899,0 L14.2425713,0 C10.3458637,0.00441467368 7.18804934,3.19023213 7.18367347,7.12149533 L7.18367347,29.329773 C7.18367347,30.8044987 8.36866642,32 9.83042931,32 Z" id="Path"></path>
                    <path d="M63.7180293,36.4477404 C63.4658003,36.1142233 63.0781859,35.9189215 62.6673893,35.9183673 L41.3345966,35.9183673 C40.5982356,35.9183673 40.0012971,36.5323784 40.0012971,37.2897969 C40.0012971,39.2372241 36.7133804,41.4040796 32.0014999,41.4040796 C27.2896193,41.4040796 24.0017026,39.2372241 24.0017026,37.2897969 C24.0017026,36.5323784 23.4047641,35.9183673 22.6684031,35.9183673 L1.33561047,35.9183673 C0.92476637,35.9176408 0.53653863,36.1117783 0.283331642,36.4445728 C0.0301246538,36.7773673 -0.0597817152,37.2116501 0.0396433148,37.6216824 C1.75022529,44.684561 7.92021949,49.6392842 14.9965975,49.6326531 L49.0064022,49.6326531 C56.0824453,49.639996 62.2520482,44.6847036 63.9606898,37.6216824 C64.059399,37.2128024 63.9699247,36.7799443 63.7180293,36.4477404 Z" id="Path"></path>
                    <path d="M25.4694096,17.6326531 C26.5514248,17.6326531 27.4285714,16.7223964 27.4285714,15.5995379 L27.4285714,12.4820947 C27.4285714,11.3592362 26.5514248,10.4489796 25.4694096,10.4489796 C24.3873943,10.4489796 23.5102477,11.3592362 23.5102477,12.4820947 L23.5102477,15.5859838 C23.5067685,16.1275441 23.7116427,16.6481638 24.0794346,17.0323833 C24.4472265,17.4166029 24.9475366,17.6326531 25.4694096,17.6326531 Z" id="Path"></path>
                    <path d="M40.4897959,15.5956946 L40.4897959,12.485938 C40.4897959,11.360957 39.6126395,10.4489796 38.5306122,10.4489796 C37.448585,10.4489796 36.5714286,11.360957 36.5714286,12.485938 L36.5714286,15.5956946 C36.5714286,16.7206757 37.448585,17.6326531 38.5306122,17.6326531 C39.6126395,17.6326531 40.4897959,16.7206757 40.4897959,15.5956946 L40.4897959,15.5956946 Z" id="Path"></path>
                    <path d="M20.1801923,22.8038145 C19.8035034,23.187241 19.5918367,23.7076071 19.5918367,24.2502407 C19.5918367,24.7928743 19.8035034,25.3132404 20.1801923,25.696667 C23.3179707,28.8962656 27.574385,30.6938776 32.0126672,30.6938776 C36.4509494,30.6938776 40.7073636,28.8962656 43.8451421,25.696667 C44.6057553,24.8931699 44.5942857,23.6165485 43.8193636,22.8273859 C43.0444415,22.0382232 41.792028,22.0277357 41.0044914,22.8038145 C36.0373026,27.8656566 27.9853544,27.8656566 23.0181657,22.8038145 C22.642013,22.4198414 22.1315185,22.2040816 21.599179,22.2040816 C21.0668395,22.2040816 20.556345,22.4198414 20.1801923,22.8038145 Z" id="Path"></path>
                </g>
                <text id="eddy" font-family="MontserratAlternates-Bold, Montserrat Alternates" font-size="50" font-weight="bold" letter-spacing="0.7142855">
                    <tspan x="78" y="48">eddy</tspan>
                </text>
            </g>
        </g>
    </g>
</svg>