<?xml version="1.0" encoding="UTF-8"?>
<svg width="24px" height="19px" viewBox="0 0 24 19" version="1.1" xmlns="http://www.w3.org/2000/svg" xmlns:xlink="http://www.w3.org/1999/xlink">
    <!-- Generator: Sketch 55.1 (78136) - https://sketchapp.com -->
    <title>Group</title>
    <desc>Created with Sketch.</desc>
    <g id="Page-1" stroke="none" stroke-width="1" fill="none" fill-rule="evenodd">
        <g id="Artboard" transform="translate(-456.000000, -227.000000)" fill="#FFFFFF" fill-rule="nonzero">
            <g id="Group" transform="translate(456.000000, 227.000000)">
                <g id="laptop-smiley-1">
                    <path d="M3.68641099,12.25 C4.23457208,12.25 4.67894443,11.7923471 4.67894443,11.2278037 L4.67894443,2.72619743 C4.67894443,2.34964698 4.9753408,2.04439252 5.34096424,2.04439252 L18.9039337,2.04439252 C19.0795123,2.04439252 19.2478996,2.11622533 19.3720524,2.24408856 C19.4962052,2.37195178 19.5659535,2.54537153 19.5659535,2.72619743 L19.5659535,11.2278037 C19.5659535,11.7923471 20.0103259,12.25 20.558487,12.25 C21.1066481,12.25 21.5510204,11.7923471 21.5510204,11.2278037 L21.5510204,2.72619743 C21.548834,1.22149384 20.3649727,0.00225171136 18.9039337,0 L5.34096424,0 C3.87969887,0.00168999227 2.6955185,1.22126074 2.69387755,2.72619743 L2.69387755,11.2278037 C2.69387755,11.7923471 3.13824991,12.25 3.68641099,12.25 Z" id="Path"></path>
                    <path d="M23.894261,13.9526506 C23.7996751,13.8249761 23.6543197,13.7502121 23.500271,13.75 L15.5004737,13.75 C15.2243384,13.75 15.0004864,13.9850511 15.0004864,14.2750004 C15.0004864,15.0204998 13.7675177,15.8499992 12.0005625,15.8499992 C10.2336072,15.8499992 9.00063849,15.0204998 9.00063849,14.2750004 C9.00063849,13.9850511 8.77678654,13.75 8.50065116,13.75 L0.500853925,13.75 C0.346787389,13.7497219 0.201201986,13.8240401 0.106249366,13.951438 C0.0112967452,14.0788359 -0.0224181432,14.2450848 0.014866243,14.4020503 C0.656334482,17.1058085 2.97008231,19.0025385 5.62372408,19 L18.3774008,19 C21.030917,19.002811 23.3445181,17.1058631 23.9852587,14.4020503 C24.0222746,14.2455259 23.9887218,14.0798224 23.894261,13.9526506 Z" id="Path"></path>
                    <path d="M9.55102858,6.75 C9.95678429,6.75 10.2857143,6.40154238 10.2857143,5.97169811 L10.2857143,4.77830189 C10.2857143,4.34845762 9.95678429,4 9.55102858,4 C9.14527287,4 8.81634288,4.34845762 8.81634288,4.77830189 L8.81634288,5.96650943 C8.8150382,6.17382547 8.89186601,6.37312519 9.02978797,6.52020925 C9.16770993,6.66729331 9.35532623,6.75 9.55102858,6.75 Z" id="Path"></path>
                    <path d="M15.1836735,5.97022684 L15.1836735,4.77977316 C15.1836735,4.34911633 14.8547398,4 14.4489796,4 C14.0432194,4 13.7142857,4.34911633 13.7142857,4.77977316 L13.7142857,5.97022684 C13.7142857,6.40088367 14.0432194,6.75 14.4489796,6.75 C14.8547398,6.75 15.1836735,6.40088367 15.1836735,5.97022684 L15.1836735,5.97022684 Z" id="Path"></path>
                    <path d="M7.56757211,8.72958523 C7.42631379,8.87636571 7.34693878,9.07556836 7.34693878,9.28329528 C7.34693878,9.4910222 7.42631379,9.69022485 7.56757211,9.83700533 C8.74423903,11.0618517 10.3403944,11.75 12.0047502,11.75 C13.669106,11.75 15.2652614,11.0618517 16.4419283,9.83700533 C16.7271582,9.52941661 16.7228571,9.04070997 16.4322613,8.73860865 C16.1416655,8.43650734 15.6720105,8.43249257 15.3766843,8.72958523 C13.5139885,10.6673217 10.4945079,10.6673217 8.63181213,8.72958523 C8.49075486,8.58259555 8.29931943,8.5 8.09969212,8.5 C7.9000648,8.5 7.70862938,8.58259555 7.56757211,8.72958523 Z" id="Path"></path>
                </g>
            </g>
        </g>
    </g>
</svg>