<?xml version="1.0" encoding="UTF-8"?>
<svg width="31px" height="25px" viewBox="0 0 31 25" version="1.1" xmlns="http://www.w3.org/2000/svg" xmlns:xlink="http://www.w3.org/1999/xlink">
    <!-- Generator: Sketch 55.1 (78136) - https://sketchapp.com -->
    <title>laptop-smiley-1</title>
    <desc>Created with Sketch.</desc>
    <g id="Page-1" stroke="none" stroke-width="1" fill="none" fill-rule="evenodd">
        <g id="Desktop-HD" transform="translate(-242.000000, -59.000000)" fill="#000000" fill-rule="nonzero">
            <g id="Group" transform="translate(241.000000, 59.000000)">
                <g id="laptop-smiley-1" transform="translate(1.000000, 0.000000)">
                    <path d="M4.71904,16.29952 C5.42596448,16.29952 5.99904,15.7264445 5.99904,15.01952 L5.99904,4.37376 C5.99904,3.90224137 6.38128137,3.52 6.8528,3.52 L24.344,3.52 C24.5704312,3.52 24.7875884,3.60994946 24.9476995,3.77006051 C25.1078105,3.93017157 25.19776,4.14732877 25.19776,4.37376 L25.19776,15.01952 C25.19776,15.7264445 25.7708355,16.29952 26.47776,16.29952 C27.1846845,16.29952 27.75776,15.7264445 27.75776,15.01952 L27.75776,4.37376 C27.7549404,2.48956157 26.2281984,0.962819606 24.344,0.96 L6.8528,0.96 C4.96830967,0.962116218 3.44115622,2.48926967 3.43904,4.37376 L3.43904,15.01952 C3.43904,15.7264445 4.01211552,16.29952 4.71904,16.29952 Z" id="Path"></path>
                    <path d="M30.86432,18.48704 C30.743247,18.3313986 30.5571874,18.2402577 30.36,18.239999 L20.12,18.239999 C19.7665378,18.239999 19.48,18.5265378 19.48,18.88 C19.48,19.7888 17.90176,20.8 15.64,20.8 C13.37824,20.8 11.8,19.7888 11.8,18.88 C11.8,18.5265378 11.5134622,18.239999 11.16,18.239999 L0.92,18.239999 C0.722789835,18.23966 0.536435796,18.3302575 0.414893362,18.4855618 C0.293350927,18.640866 0.250194776,18.8435314 0.29792,19.03488 C1.11902016,22.3308925 4.08069244,24.6430984 7.47744,24.6400038 L23.80256,24.6400038 C27.1991468,24.6434305 30.1606312,22.330959 30.9808,19.03488 C31.0281816,18.8440692 30.9852328,18.6420686 30.86432,18.48704 Z" id="Path"></path>
                    <path d="M12.40032,9.472 C12.9305134,9.472 13.36032,9.04219336 13.36032,8.512 L13.36032,7.04 C13.36032,6.50980664 12.9305134,6.08 12.40032,6.08 C11.8701266,6.08 11.44032,6.50980664 11.44032,7.04 L11.44032,8.5056 C11.4386152,8.76131491 11.5390047,9.00714205 11.7192247,9.18856355 C11.8994447,9.36998505 12.1445994,9.472 12.40032,9.472 Z" id="Path"></path>
                    <path d="M19.76032,8.5056 L19.76032,7.04 C19.76032,6.50980664 19.3305134,6.08 18.80032,6.08 C18.2701266,6.08 17.84032,6.50980664 17.84032,7.04 L17.84032,8.5056 C17.84032,9.03579336 18.2701266,9.4656 18.80032,9.4656 C19.3305134,9.4656 19.76032,9.03579336 19.76032,8.5056 L19.76032,8.5056 Z" id="Path"></path>
                    <path d="M10.0848,11.97952 C9.90470972,12.159354 9.80351448,12.4034151 9.80351448,12.65792 C9.80351448,12.9124249 9.90470972,13.156486 10.0848,13.33632 C11.5849331,14.8369895 13.6198721,15.6801019 15.74176,15.6801019 C17.8636479,15.6801019 19.8985869,14.8369895 21.39872,13.33632 C21.7623598,12.9594654 21.7568763,12.3607069 21.3863956,11.9905754 C21.0159149,11.6204439 20.4171516,11.6155251 20.04064,11.97952 C17.6658885,14.3536152 13.8163515,14.3536152 11.4416,11.97952 C11.261766,11.7994297 11.0177049,11.6982345 10.7632,11.6982345 C10.5086951,11.6982345 10.264634,11.7994297 10.0848,11.97952 Z" id="Path"></path>
                </g>
            </g>
        </g>
    </g>
</svg>